<?xml version="1.0" encoding="utf-8"?><!-- Uploaded to: SVG Repo, www.svgrepo.com, Generator: SVG Repo Mixer Tools -->
<svg fill="#000000" width="800px" height="800px" viewBox="0 0 24 24" id="chat-alt-3" data-name="Flat Line" xmlns="http://www.w3.org/2000/svg" class="icon flat-line">
<defs>
<linearGradient id="Gradient2" x1="0" x2="1" y1="1" y2="0">
      <stop offset="0%" stop-color="#6768dc" />
      <stop offset="100%" stop-color="#ef72b8" />
</linearGradient>
</defs>
<path id="secondary" d="M18.81,16.23,20,21l-4.95-2.48A9.84,9.84,0,0,1,12,19c-5,0-9-3.58-9-8s4-8,9-8,9,3.58,9,8A7.49,7.49,0,0,1,18.81,16.23Z" style="fill: none; stroke-width: 2;"></path>
<path id="primary" d="M18.81,16.23,20,21l-4.95-2.48A9.84,9.84,0,0,1,12,19c-5,0-9-3.58-9-8s4-8,9-8,9,3.58,9,8A7.49,7.49,0,0,1,18.81,16.23Z" style="fill: url(#Gradient2); stroke: url(#Gradient2); stroke-linecap: round; stroke-linejoin: round; stroke-width: 2;"></path>
<path id="primary" d="M18.81,16.23,20,21l-4.95-2.48A9.84,9.84,0,0,1,12,19c-5,0-9-3.58-9-8s4-8,9-8,9,3.58,9,8A7.49,7.49,0,0,1,18.81,16.23Z" style="fill: none; stroke: #283a75; stroke-linecap: round; stroke-linejoin: round; stroke-width: 1;"></path>
<path id="primary-upstroke" d="M12,11h.1M7.9,11H8m8,0h.1" style="fill: none; stroke: #283a75; stroke-linecap: round; stroke-linejoin: round; stroke-width: 2.5;"></path>
</svg>